<svg xmlns="http://www.w3.org/2000/svg" width="375" viewBox="0 0 375 375" height="375" version="1.0"><defs><clipPath id="a"><path d="M 106.25 249.226562 L 274.371094 249.226562 L 274.371094 291.207031 L 106.25 291.207031 Z M 106.25 249.226562"/></clipPath><clipPath id="b"><path d="M 113 75 L 235 75 L 235 156 L 113 156 Z M 113 75"/></clipPath><clipPath id="c"><path d="M 104.753906 87.832031 L 251.050781 54.699219 L 275.902344 164.421875 L 129.605469 197.554688 Z M 104.753906 87.832031"/></clipPath><clipPath id="d"><path d="M 104.753906 87.832031 L 251.050781 54.699219 L 275.902344 164.421875 L 129.605469 197.554688 Z M 104.753906 87.832031"/></clipPath><clipPath id="e"><path d="M 188 65 L 261 65 L 261 128 L 188 128 Z M 188 65"/></clipPath><clipPath id="f"><path d="M 104.753906 87.832031 L 251.050781 54.699219 L 275.902344 164.421875 L 129.605469 197.554688 Z M 104.753906 87.832031"/></clipPath><clipPath id="g"><path d="M 104.753906 87.832031 L 251.050781 54.699219 L 275.902344 164.421875 L 129.605469 197.554688 Z M 104.753906 87.832031"/></clipPath><clipPath id="h"><path d="M 145 129 L 241 129 L 241 186 L 145 186 Z M 145 129"/></clipPath><clipPath id="i"><path d="M 104.753906 87.832031 L 251.050781 54.699219 L 275.902344 164.421875 L 129.605469 197.554688 Z M 104.753906 87.832031"/></clipPath><clipPath id="j"><path d="M 104.753906 87.832031 L 251.050781 54.699219 L 275.902344 164.421875 L 129.605469 197.554688 Z M 104.753906 87.832031"/></clipPath><clipPath id="k"><path d="M 161 163 L 226 163 L 226 178 L 161 178 Z M 161 163"/></clipPath><clipPath id="l"><path d="M 104.753906 87.832031 L 251.050781 54.699219 L 275.902344 164.421875 L 129.605469 197.554688 Z M 104.753906 87.832031"/></clipPath><clipPath id="m"><path d="M 104.753906 87.832031 L 251.050781 54.699219 L 275.902344 164.421875 L 129.605469 197.554688 Z M 104.753906 87.832031"/></clipPath></defs><g clip-path="url(#a)"><path fill="#3D3D3D" d="M 136.582031 270.351562 C 136.300781 270.367188 136.359375 270.492188 136.585938 270.5 C 135.519531 270.457031 134.164062 270.4375 132.800781 270.464844 C 133.179688 270.195312 135.464844 270.542969 135.222656 270.117188 C 135.746094 270.132812 137.628906 270.523438 136.582031 270.351562 Z M 116.894531 273.601562 C 117.371094 273.058594 117.945312 273.128906 118.699219 272.613281 C 118.269531 273.070312 117.542969 273.15625 116.894531 273.601562 Z M 268.484375 257.214844 C 268.359375 256.976562 268.277344 256.867188 268.230469 256.839844 C 267.886719 256.316406 268.203125 256.570312 267.957031 256.164062 C 268.003906 256.148438 268.6875 257.320312 268.484375 257.214844 Z M 250.789062 277.714844 C 251.082031 277.597656 250.855469 277.738281 250.445312 277.84375 C 250.035156 277.953125 249.484375 278.0625 249.226562 277.941406 C 249.609375 277.78125 249.925781 277.867188 250.789062 277.714844 Z M 107.34375 281.632812 C 107.542969 281.1875 107.730469 280.75 107.886719 280.390625 C 108.054688 280.03125 108.226562 279.769531 108.308594 279.625 C 108.507812 279.34375 108.351562 279.527344 107.816406 280.726562 C 107.546875 281.394531 107.253906 281.824219 106.992188 282.839844 C 106.953125 282.878906 106.988281 282.742188 107.03125 282.589844 C 107.019531 282.539062 106.976562 282.679688 106.933594 282.832031 C 107.050781 281.980469 107.632812 280.863281 108.125 279.769531 C 108 280.210938 107.609375 280.859375 107.34375 281.632812 Z M 196.214844 276.117188 C 196.175781 276.292969 195.460938 276.289062 194.335938 276.152344 C 193.84375 276.03125 196.210938 276.34375 195.980469 276.144531 C 191.449219 275.785156 190.003906 275.582031 185.707031 274.9375 C 185.558594 274.804688 186.980469 275.089844 187.566406 275.140625 C 187.574219 275.164062 187.265625 275.136719 187.097656 275.109375 C 189.0625 275.460938 193.074219 275.824219 196.214844 276.117188 Z M 119.84375 267.101562 C 119.851562 267.011719 120.0625 266.941406 120.085938 266.976562 C 120.6875 266.652344 121.566406 266.210938 122.519531 265.898438 C 122.503906 266.007812 122.160156 266.132812 121.90625 266.222656 C 121.648438 266.332031 121.480469 266.386719 121.832031 266.292969 C 121.863281 266.457031 121.007812 266.664062 120.847656 266.714844 C 120.640625 266.832031 120.433594 266.953125 120.417969 267.039062 C 120.492188 267.140625 121.507812 266.453125 120.960938 266.945312 C 121.785156 266.679688 121.058594 266.675781 121.886719 266.410156 C 121.824219 266.6875 120.789062 267.066406 119.796875 267.554688 C 120.042969 267.242188 120.21875 266.988281 119.84375 267.101562 Z M 210.203125 277.5 C 210.503906 277.269531 211.15625 277.574219 211.835938 277.472656 C 211.796875 277.546875 211.878906 277.59375 212.0625 277.621094 C 211.796875 277.703125 211.0625 277.585938 210.203125 277.5 Z M 174.917969 275.097656 C 174.730469 275.148438 172.746094 274.683594 172.613281 274.6875 C 172.0625 274.464844 174.371094 275.054688 174.917969 275.097656 Z M 273.753906 271.09375 C 273.644531 271.417969 273.640625 271.238281 273.636719 271.058594 C 273.320312 271.832031 272.777344 273.308594 272.40625 273.539062 C 272.871094 272.722656 272.449219 273.183594 272.992188 272.292969 C 272.792969 272.234375 271.390625 274.71875 271.222656 275.050781 C 271.640625 274.667969 272.152344 273.535156 272.347656 273.507812 C 271.753906 274.496094 272.617188 273.464844 272.136719 274.335938 C 272.898438 273.347656 273.765625 271.476562 273.753906 271.09375 Z M 233.667969 285.566406 C 234.304688 285.570312 235.085938 285.625 235.097656 285.410156 C 234.425781 285.492188 233.445312 285.265625 233.421875 285.398438 C 233.609375 285.421875 233.703125 285.472656 233.667969 285.566406 Z M 273.816406 266.253906 C 273.808594 267.765625 273.695312 268.257812 273.777344 268.136719 C 273.804688 268.070312 273.847656 267.851562 273.882812 267.519531 C 273.902344 267.191406 273.867188 266.746094 273.816406 266.253906 Z M 267.734375 277.917969 C 268.105469 277.640625 268.691406 277.050781 268.632812 277.367188 C 269.132812 276.957031 269.847656 276.230469 270.351562 275.648438 C 270.820312 275.023438 271.09375 274.582031 270.785156 274.746094 C 270.691406 275.332031 268.777344 276.855469 267.734375 277.917969 Z M 159.617188 272.402344 C 158.90625 272.328125 157.613281 272.058594 157.28125 272.128906 C 157.996094 272.1875 159.285156 272.453125 159.617188 272.402344 Z M 270.25 260.039062 C 270.492188 260.726562 269.863281 259.210938 269.875 259.492188 C 270.460938 260.582031 270.632812 261.554688 270.945312 262.386719 C 270.824219 261.996094 270.777344 261.546875 270.664062 261.128906 C 270.546875 260.714844 270.4375 260.320312 270.25 260.039062 Z M 269.773438 259.566406 C 270.085938 260.167969 270.421875 261.363281 270.585938 261.605469 C 270.230469 260.574219 270.175781 260.066406 269.773438 259.566406 Z M 267.796875 271.828125 C 268.273438 271.140625 269.035156 270.597656 268.878906 270.296875 C 268.6875 270.761719 267.433594 272.066406 267.796875 271.828125 Z M 164.117188 270.421875 C 163.777344 270.175781 162.894531 270.027344 162.300781 269.792969 C 162.25 269.929688 163.722656 270.246094 164.117188 270.421875 Z M 156.375 268.257812 L 158.882812 268.96875 C 158.917969 268.863281 159.328125 268.953125 158.667969 268.722656 C 158.757812 268.949219 156.042969 268.054688 156.375 268.257812 Z M 122.074219 266.828125 C 121.878906 266.890625 121.769531 266.894531 121.78125 266.808594 C 121.222656 267.019531 120.722656 267.277344 120.253906 267.515625 C 119.800781 267.773438 119.375 268.011719 118.929688 268.148438 C 119.042969 268.234375 119.765625 267.859375 120.503906 267.511719 C 121.253906 267.183594 122.003906 266.839844 122.074219 266.828125 Z M 159.792969 269.1875 C 160.5625 269.289062 161.773438 269.84375 162.074219 269.726562 C 160.808594 269.328125 159.660156 269.003906 159.792969 269.1875 Z M 138.210938 264.328125 C 138.171875 264.4375 138.824219 264.53125 139.433594 264.582031 C 140.042969 264.652344 140.609375 264.671875 140.429688 264.570312 C 139.910156 264.417969 138.617188 264.246094 138.210938 264.328125 Z M 146.460938 265.351562 C 145.621094 265.113281 145.285156 264.8125 143.839844 264.660156 C 144.738281 265.140625 145.265625 264.957031 146.460938 265.351562 Z M 139.6875 264.070312 L 139.691406 264.28125 C 140.25 264.390625 141.335938 264.367188 140.675781 264.234375 C 140.460938 264.425781 140.304688 264.03125 139.6875 264.070312 Z M 238.496094 285.929688 C 238.425781 285.785156 241.273438 285.824219 242.113281 285.859375 C 241.25 285.613281 238.519531 285.738281 237.289062 285.84375 C 237.644531 285.84375 238.300781 286.160156 238.496094 285.929688 Z M 264.542969 280.515625 C 263.542969 281.082031 262.65625 281.238281 262.28125 281.699219 C 263.132812 281.390625 264.714844 280.601562 264.542969 280.515625 Z M 269.914062 268.488281 C 270.089844 267.988281 270.476562 267.453125 270.445312 267.011719 C 270.285156 267.546875 269.910156 268.101562 269.914062 268.488281 Z M 116.453125 269.585938 C 116.730469 269.460938 116.40625 269.792969 117.394531 269.121094 C 117.335938 268.953125 116.339844 269.578125 117.511719 268.832031 C 117.394531 268.808594 116.925781 269.140625 116.589844 269.339844 C 116.65625 269.238281 116.71875 269.132812 116.960938 268.964844 C 116.832031 268.945312 116.570312 269.207031 116.554688 269.292969 C 115.757812 269.585938 117.277344 268.445312 117.90625 268.007812 C 118.472656 267.667969 118.082031 268.140625 118.039062 268.214844 C 118.898438 267.664062 119.332031 267.40625 119.53125 267.617188 C 118.9375 267.933594 119.222656 267.730469 119.230469 267.632812 C 118.480469 268 118.457031 268.144531 117.660156 268.597656 C 117.996094 268.484375 118.511719 268.230469 119.140625 267.949219 C 119.449219 267.800781 119.78125 267.640625 120.125 267.472656 C 120.480469 267.316406 120.839844 267.15625 121.195312 267 C 121.917969 266.664062 122.617188 266.386719 123.179688 266.15625 C 123.746094 265.914062 124.183594 265.726562 124.367188 265.632812 C 124.429688 265.488281 125.617188 265.503906 126.113281 265.15625 C 125.871094 265.019531 125.238281 265.140625 124.296875 265.441406 C 124.109375 265.425781 124.695312 265.246094 125.441406 265.039062 C 126.1875 264.835938 127.101562 264.675781 127.546875 264.550781 C 127.554688 264.683594 126.722656 264.785156 126.84375 264.917969 C 127.667969 264.800781 127.605469 264.640625 127.804688 264.5 C 130.667969 263.988281 133.261719 263.796875 135.875 263.800781 C 138.492188 263.8125 141.136719 264.066406 144.082031 264.628906 C 143.195312 264.339844 144.144531 264.480469 144.816406 264.546875 C 144.898438 264.683594 144.621094 264.644531 144.328125 264.601562 C 144.691406 264.851562 145.734375 264.855469 145.773438 264.734375 C 146.1875 264.960938 146.597656 265.003906 147.429688 265.222656 C 149.972656 265.914062 149.023438 265.539062 145.996094 265.054688 C 146.789062 265.363281 148.597656 265.628906 149.757812 265.976562 C 149.398438 266.128906 148.976562 265.953125 148.351562 265.703125 C 148.925781 266.148438 150.394531 266.503906 152.101562 266.933594 C 153.800781 267.363281 155.738281 267.871094 157.296875 268.417969 C 156.214844 267.96875 154.21875 267.4375 152.511719 266.953125 C 152.957031 266.882812 153.433594 267.175781 154.34375 267.414062 C 154.070312 267.136719 153.070312 266.859375 152.03125 266.59375 C 150.988281 266.324219 149.917969 266.074219 149.535156 265.730469 C 156.21875 267.660156 161.773438 269.742188 167.757812 271.324219 C 168.265625 271.441406 168.082031 271.46875 168.441406 271.5625 C 173.003906 272.597656 176.832031 273.695312 183.386719 274.820312 C 183.246094 274.699219 184.167969 274.96875 184.777344 274.996094 C 185.40625 275.121094 184.25 274.96875 184.316406 275.027344 C 186.3125 275.332031 186.601562 275.234375 188.964844 275.707031 C 187.796875 275.5625 187.085938 275.398438 186.40625 275.332031 C 189.09375 275.816406 193.039062 276.269531 195.5 276.519531 C 193.789062 276.234375 191.335938 276.035156 194.097656 276.285156 C 194.792969 276.351562 195.519531 276.375 196.671875 276.496094 C 197.078125 276.621094 196.492188 276.566406 196.898438 276.691406 C 200.183594 276.917969 202.753906 277.210938 205.324219 277.113281 C 205.253906 277.230469 204.296875 277.058594 204.148438 277.144531 C 204.773438 277.390625 206.183594 277.183594 206.707031 277.390625 C 207.027344 277.398438 206.90625 277.253906 206.953125 277.167969 C 207.960938 277.3125 207.53125 277.15625 208.585938 277.214844 C 208.367188 277.320312 207.726562 277.269531 207.644531 277.40625 C 208.867188 277.484375 210.195312 277.585938 211.570312 277.703125 C 212.941406 277.824219 214.363281 277.953125 215.761719 277.933594 C 215.726562 277.847656 215.34375 277.851562 215.070312 277.828125 C 215.636719 277.589844 217.324219 278.070312 218.535156 277.957031 C 217.347656 277.59375 213.503906 277.65625 211.609375 277.257812 C 209.445312 277.023438 214.378906 277.371094 215.082031 277.40625 C 220.78125 277.847656 226.523438 278.457031 233.011719 278.261719 C 231.71875 278.675781 228.449219 278.347656 226.367188 278.472656 C 226.867188 278.769531 229.332031 278.394531 229.132812 278.78125 C 229.851562 278.789062 229.785156 278.523438 230.738281 278.613281 C 230.660156 278.71875 230.339844 278.742188 230.289062 278.859375 C 231.257812 278.753906 231.527344 278.832031 232.585938 278.859375 C 232.511719 278.753906 232.003906 278.792969 231.664062 278.777344 C 232.265625 278.660156 234.792969 278.5625 233.960938 278.804688 C 235.71875 278.714844 237.609375 278.78125 239.585938 278.730469 C 241.558594 278.652344 243.644531 278.722656 245.769531 278.613281 C 246.832031 278.558594 247.90625 278.503906 248.996094 278.453125 C 249.539062 278.421875 250.085938 278.394531 250.632812 278.367188 L 252.207031 278.214844 C 254.292969 277.96875 256.378906 277.535156 258.339844 276.886719 C 258.140625 276.746094 257.085938 277.273438 256.839844 277.136719 C 256.417969 277.199219 258.195312 276.71875 258.484375 276.679688 C 258.046875 276.453125 255.875 277.171875 254.878906 277.328125 C 253.925781 277.523438 252.847656 277.753906 251.695312 277.859375 C 253.171875 277.464844 254.742188 277.15625 256.386719 276.757812 C 258.023438 276.363281 259.765625 275.921875 261.460938 275.199219 C 261.378906 275.304688 261.148438 275.625 261.765625 275.324219 C 261.550781 275.503906 261.085938 275.695312 260.578125 275.894531 C 260.066406 276.089844 259.480469 276.234375 259.0625 276.417969 C 261.085938 275.910156 263.320312 274.867188 264.960938 273.9375 C 264.8125 273.875 264.054688 274.496094 263.84375 274.445312 C 264.96875 273.859375 266.402344 272.929688 267.460938 271.855469 C 268.519531 270.792969 269.273438 269.625 269.453125 268.945312 C 269.441406 268.742188 269.804688 268.351562 270.03125 267.835938 C 270.164062 267.578125 270.304688 267.3125 270.429688 267.074219 C 270.542969 266.824219 270.59375 266.59375 270.632812 266.425781 C 270.910156 265.265625 270.425781 263.347656 270.726562 262.707031 C 270.722656 262.902344 270.753906 263.191406 270.828125 263.550781 C 270.894531 263.222656 270.722656 262.3125 270.742188 262.003906 C 270.738281 262.4375 270.535156 261.683594 270.199219 260.867188 C 269.914062 260.035156 269.5 259.125 269.632812 259.132812 C 269.199219 258.472656 269.144531 258.222656 268.734375 257.585938 C 268.828125 257.660156 268.976562 257.828125 269.148438 258.101562 C 269.078125 257.769531 268.527344 256.582031 268.148438 256.289062 C 267.636719 255.433594 267.808594 255.382812 266.777344 254.085938 C 266.734375 253.765625 266.121094 252.894531 265.273438 251.898438 C 265.441406 252 266.335938 253.140625 266.527344 253.285156 C 265.820312 252.390625 266.144531 252.625 265.359375 251.742188 L 265.839844 252.261719 C 266.203125 252.605469 265.289062 251.558594 265.25 251.46875 C 264.398438 250.617188 264.398438 250.621094 263.753906 249.976562 C 264.699219 250.847656 266.082031 252.121094 267.457031 253.585938 C 268.835938 255.046875 270.183594 256.726562 271.128906 258.269531 C 271.386719 258.839844 271.757812 259.511719 271.789062 259.867188 C 271.988281 260.285156 272.136719 260.371094 272.355469 260.945312 C 272.40625 260.863281 272.03125 259.960938 272.433594 260.902344 C 272.296875 260.433594 271.777344 259.136719 271.667969 259.078125 C 271.886719 259.023438 273.027344 261.199219 273.394531 262.9375 C 273.9375 264.777344 274.390625 266.777344 273.695312 269.402344 C 273.683594 269.773438 273.667969 270.167969 273.679688 270.5 C 273.984375 269.535156 274.132812 268.363281 274.226562 267.296875 C 274.222656 266.761719 274.242188 266.246094 274.1875 265.796875 C 274.128906 265.339844 274.058594 264.949219 273.980469 264.648438 C 274.292969 265.203125 273.945312 263.609375 273.761719 262.804688 C 273.949219 263.152344 274.058594 263.710938 274.203125 264.363281 C 274.269531 264.6875 274.289062 265.042969 274.328125 265.417969 C 274.375 265.789062 274.382812 266.175781 274.359375 266.566406 C 274.351562 268.148438 273.964844 269.75 273.71875 270.796875 C 274.132812 269.703125 274.144531 270.296875 273.925781 271.429688 C 273.765625 271.96875 273.515625 272.628906 273.238281 273.25 C 272.910156 273.835938 272.53125 274.371094 272.210938 274.710938 C 272.296875 274.800781 271.945312 275.433594 271.40625 276.207031 C 271.417969 276.0625 271.523438 275.84375 271.824219 275.464844 C 271.003906 276.273438 269.933594 277.390625 268.625 278.398438 C 267.339844 279.460938 265.835938 280.40625 264.355469 281.210938 C 264.355469 281.050781 264.707031 280.800781 265.171875 280.5 C 265.640625 280.207031 266.242188 279.898438 266.703125 279.546875 C 263.570312 281.515625 259.429688 283.253906 254.972656 284.390625 C 253.859375 284.675781 252.722656 284.90625 251.578125 285.117188 C 250.476562 285.273438 249.371094 285.429688 248.28125 285.582031 C 247.1875 285.730469 246.101562 285.871094 245.035156 285.976562 C 243.96875 286.042969 242.921875 286.097656 241.90625 286.128906 C 240.644531 286.15625 239.367188 286.074219 238.273438 286.101562 C 237.527344 286.078125 237.316406 285.863281 236.800781 285.757812 C 234.816406 285.757812 233.316406 285.753906 231.867188 285.65625 C 230.421875 285.542969 229.011719 285.433594 227.21875 285.289062 C 226.949219 285.289062 227.085938 285.359375 227.21875 285.367188 C 223.671875 285.195312 218.617188 284.488281 215.355469 284.03125 C 219.976562 284.574219 227.277344 285.273438 233.191406 285.566406 C 230.0625 284.949219 225.570312 284.980469 221.269531 284.484375 C 219.886719 284.363281 218.519531 284.152344 217.175781 283.96875 C 215.832031 283.769531 214.519531 283.582031 213.25 283.398438 C 210.609375 282.949219 207.597656 282.628906 206.234375 282.148438 C 201.558594 281.269531 197.621094 280.316406 193.820312 279.414062 C 190.023438 278.5 186.367188 277.613281 182.28125 276.714844 C 182.765625 276.859375 184.550781 277.242188 185.953125 277.574219 C 185.4375 277.503906 183.425781 277.039062 181.820312 276.660156 C 181.121094 276.492188 178.601562 275.910156 179.984375 276.199219 C 181.050781 276.417969 181.371094 276.542969 182.050781 276.660156 C 179.289062 275.980469 176.832031 275.472656 175.839844 275.3125 C 174.175781 274.839844 168.988281 273.898438 164.734375 273.222656 C 159.042969 272.289062 152.425781 271.625 145.902344 270.714844 C 145.542969 270.699219 146.09375 270.847656 145.664062 270.824219 C 145.039062 270.632812 145.402344 270.777344 144.757812 270.53125 C 144.398438 270.523438 144.550781 270.71875 143.832031 270.578125 C 143.84375 270.511719 144.117188 270.550781 144.296875 270.550781 C 142.605469 270.171875 139.574219 270.164062 138.359375 269.761719 C 137.628906 270.066406 134.109375 269.585938 132.046875 269.851562 C 131.96875 269.40625 133.046875 269.660156 134.050781 269.625 C 132.863281 269.5 132.132812 269.503906 131.3125 269.585938 C 130.488281 269.667969 129.558594 269.753906 127.957031 269.910156 C 129.019531 269.886719 130.121094 269.902344 131.804688 269.730469 C 130.339844 270.222656 127.277344 270.234375 125.394531 270.648438 C 126.148438 270.652344 126.996094 270.574219 127.902344 270.550781 C 126.242188 270.921875 124.527344 270.558594 122.804688 271.296875 C 124.074219 270.632812 125.480469 270.6875 127.09375 270.132812 C 125.257812 270.285156 123.363281 270.707031 121.589844 271.308594 C 119.808594 271.917969 118.132812 272.753906 116.5625 273.5625 C 115.964844 273.953125 116.3125 273.9375 115.714844 274.324219 C 115.90625 274.082031 115.722656 274.15625 115.445312 274.3125 C 115.171875 274.476562 114.828125 274.753906 114.632812 274.859375 C 114.65625 274.714844 115.515625 274.167969 115.933594 273.890625 C 115.945312 273.59375 114.925781 274.589844 114.730469 274.636719 C 114.925781 274.238281 115.84375 273.777344 116.222656 273.53125 C 116.175781 273.484375 115.683594 273.703125 115.09375 274.042969 C 114.542969 274.425781 113.871094 274.921875 113.492188 275.390625 C 113.585938 274.730469 111.714844 276.691406 111.265625 277.257812 C 111.335938 277.003906 112.191406 276.074219 112.636719 275.613281 C 112.378906 275.78125 111.9375 276.222656 111.714844 276.410156 C 111.625 276.019531 112.84375 275.007812 113.152344 274.484375 C 112.683594 274.882812 112.160156 275.398438 111.628906 275.953125 C 111.140625 276.546875 110.59375 277.121094 110.179688 277.726562 C 110.324219 277.628906 110.914062 276.734375 110.90625 277.03125 C 110.597656 277.335938 110.304688 277.730469 110.003906 278.125 C 109.707031 278.523438 109.390625 278.917969 109.160156 279.304688 C 108.679688 280.0625 108.300781 280.632812 108.230469 280.601562 C 108.332031 280.339844 108.25 280.460938 108.195312 280.585938 C 108.988281 278.789062 110.175781 277.398438 111.464844 275.640625 C 111.066406 275.902344 110.777344 276.480469 110.078125 277.390625 C 110.5625 276.382812 109.886719 277.582031 109.789062 277.511719 C 110.539062 276.269531 110.878906 276.242188 111.304688 275.527344 C 111.277344 275.421875 111.078125 275.660156 111.113281 275.695312 C 111.433594 275.003906 112.535156 273.628906 113.90625 272.316406 C 115.292969 271.027344 116.933594 269.820312 117.972656 269.046875 C 117.449219 269.203125 116.664062 269.964844 116.179688 270.082031 C 116.261719 270.203125 116.105469 270.308594 115.785156 270.515625 C 115.621094 270.617188 115.417969 270.746094 115.183594 270.910156 C 114.957031 271.089844 114.703125 271.308594 114.429688 271.582031 C 114.832031 271.007812 116.027344 270.222656 116.453125 269.585938 Z M 128.710938 263.847656 C 129.71875 263.523438 130.46875 263.554688 131.792969 263.367188 C 131.796875 263.4375 131.484375 263.445312 131.285156 263.488281 C 131.25 263.554688 131.398438 263.546875 131.554688 263.53125 C 131.28125 263.683594 129.570312 263.792969 128.710938 263.847656 Z M 218.398438 286.480469 C 219.070312 286.515625 219.015625 286.671875 219.585938 286.722656 C 219.375 286.855469 218.253906 286.757812 218.398438 286.480469 Z M 254.777344 285.734375 C 254.160156 286.078125 252.316406 286.269531 251.261719 286.453125 C 252.167969 286.113281 253.5 285.953125 254.777344 285.734375 Z M 226.988281 285.675781 C 226.496094 286.035156 225.433594 285.691406 224.125 285.59375 C 224.304688 285.476562 225.953125 285.441406 226.988281 285.675781 Z M 133.296875 270.871094 C 134.011719 270.667969 135.710938 270.808594 136.820312 270.792969 C 136.082031 270.9375 134.386719 270.773438 133.296875 270.871094 Z M 194.445312 279.636719 C 193.289062 279.546875 191.136719 278.820312 189.394531 278.457031 C 190.761719 278.667969 192.078125 279.089844 194.445312 279.636719 Z M 158.207031 272.425781 C 156.601562 272.417969 154.992188 272.167969 152.585938 271.9375 C 154.28125 271.917969 155.738281 272.152344 158.207031 272.425781 Z M 271.683594 258.769531 C 271.414062 258.445312 270.710938 257.164062 270.195312 256.535156 C 271.191406 257.777344 271.65625 258.289062 272.585938 260.25 C 272.425781 260.085938 272.277344 259.777344 272.09375 259.386719 C 271.894531 259.011719 271.652344 258.558594 271.34375 258.101562 C 271.339844 258.160156 271.542969 258.511719 271.683594 258.769531 Z M 147.496094 271.207031 C 146.886719 271.339844 146.390625 271.152344 145.421875 271.066406 C 146.015625 271.011719 146.871094 271.074219 147.496094 271.207031 Z M 266.90625 252.722656 C 266.734375 252.617188 265.730469 251.566406 265.550781 251.386719 C 265.859375 251.59375 266.304688 252.15625 266.90625 252.722656 Z M 133.003906 270.308594 C 133.445312 270.128906 134.222656 270.148438 134.5 270.203125 C 134.78125 270.265625 134.550781 270.304688 133.003906 270.308594 Z M 112.6875 278.179688 C 112.777344 278.058594 113.019531 277.769531 113.308594 277.449219 C 113.617188 277.152344 113.980469 276.835938 114.269531 276.628906 C 114.128906 276.859375 113.863281 277.121094 113.566406 277.382812 C 113.269531 277.648438 112.957031 277.933594 112.6875 278.179688 Z M 121.335938 271.792969 C 121.414062 271.882812 121.15625 272.019531 121.257812 272.105469 C 120.804688 272.164062 120.21875 272.339844 119.632812 272.597656 C 119.335938 272.722656 119.027344 272.851562 118.730469 272.976562 C 118.433594 273.117188 118.152344 273.257812 117.878906 273.386719 C 118.296875 273.027344 118.722656 272.78125 119.269531 272.570312 C 119.8125 272.335938 120.457031 272.105469 121.335938 271.792969 Z M 265.648438 252.140625 C 264.914062 251.402344 263.757812 250.089844 262.898438 249.226562 C 263.40625 249.683594 264.894531 251.273438 265.648438 252.140625 Z M 106.664062 291.207031 C 106.570312 290.742188 106.503906 290.414062 106.433594 290.066406 C 106.359375 289.710938 106.269531 289.335938 106.253906 288.78125 C 106.214844 289.042969 106.71875 291.316406 106.664062 291.207031 Z M 190.601562 275.679688 C 190.027344 275.683594 189.074219 275.574219 188.035156 275.421875 C 188.488281 275.414062 189.582031 275.566406 190.601562 275.679688 Z M 115.652344 270.25 C 115.011719 270.839844 114.347656 271.398438 113.625 271.9375 C 112.949219 272.523438 112.226562 273.109375 111.667969 273.90625 C 111.832031 273.265625 114.007812 271.433594 115.652344 270.25 Z M 207.664062 276.910156 C 206.902344 277.203125 205.0625 276.808594 204.167969 276.808594 C 204.476562 276.582031 206.609375 276.902344 207.664062 276.910156 Z M 202.769531 276.617188 C 202.40625 276.90625 200.289062 276.394531 198.554688 276.378906 C 198.613281 276.273438 201.566406 276.589844 202.769531 276.617188 Z M 180.601562 274.042969 C 179.828125 273.988281 177.585938 273.527344 175.996094 273.179688 C 177.460938 273.453125 178.546875 273.660156 180.601562 274.042969 Z M 156.425781 267.558594 C 156.796875 267.605469 159.152344 268.28125 159.148438 268.453125 C 157.785156 268.003906 157.515625 267.914062 156.425781 267.558594 Z M 154.160156 266.746094 L 155.527344 267.171875 C 155.722656 267.429688 154.625 266.96875 154.152344 266.855469 Z M 132.609375 263.664062 C 132.71875 263.839844 131.71875 263.894531 130.425781 264.042969 C 129.125 264.171875 127.539062 264.414062 126.519531 264.710938 C 128.363281 263.917969 130.550781 263.976562 132.609375 263.664062 Z M 132.324219 263.472656 C 132.449219 263.417969 133.121094 263.316406 133.742188 263.28125 C 134.367188 263.257812 134.945312 263.28125 134.890625 263.414062 C 133.765625 263.496094 133.347656 263.363281 132.324219 263.472656 Z M 141.664062 263.628906 C 142.515625 263.578125 144.703125 264.011719 145.554688 264.277344 C 144.492188 264.269531 142.992188 263.75 141.664062 263.628906 Z M 118.847656 266.984375 C 118.847656 267.132812 117.992188 267.511719 118 267.660156 C 118.140625 267.761719 118.355469 267.363281 118.945312 267.144531 C 118.589844 267.457031 118.167969 267.75 117.421875 268.242188 C 117.632812 268.023438 117.546875 268.015625 117.128906 268.285156 C 117.015625 268.085938 117.96875 267.445312 118.847656 266.984375 Z M 133.828125 263.085938 C 135.21875 262.949219 136.261719 262.949219 137.914062 263.082031 C 137.460938 263.117188 137.222656 263.242188 136.660156 263.265625 C 137.046875 263.109375 136.445312 263.097656 135.695312 263.105469 C 134.945312 263.121094 134.039062 263.1875 133.828125 263.085938 Z M 121.507812 265.582031 C 121.316406 265.808594 120.597656 266.125 119.808594 266.46875 C 119.753906 266.296875 120.796875 265.898438 121.507812 265.582031 Z M 131.226562 263.140625 C 130.507812 263.214844 129.222656 263.328125 128.648438 263.574219 C 130.847656 263.25 134.828125 262.882812 131.226562 263.140625"/></g><g clip-path="url(#b)"><g clip-path="url(#c)"><g clip-path="url(#d)"><path fill="#3D3D3D" d="M 206.050781 94.335938 C 205.9375 94.449219 205.257812 93.980469 204.011719 93.0625 C 202.765625 92.140625 200.945312 90.773438 198.488281 89.203125 C 196.023438 87.632812 192.914062 85.867188 189.109375 84.253906 C 185.304688 82.644531 180.800781 81.195312 175.6875 80.367188 C 170.972656 79.609375 165.71875 79.386719 160.207031 80.054688 C 154.699219 80.722656 148.929688 82.277344 143.414062 85.066406 C 138.875 87.359375 134.5 90.507812 130.699219 94.441406 C 126.898438 98.375 123.664062 103.097656 121.503906 108.425781 C 120.1875 111.710938 119.246094 115.234375 118.875 118.824219 C 118.503906 122.414062 118.691406 126.0625 119.640625 129.5625 C 120.066406 131.191406 120.660156 132.789062 121.410156 134.328125 C 122.835938 137.265625 124.78125 139.933594 127.078125 142.183594 C 129.375 144.433594 132.019531 146.265625 134.855469 147.550781 C 137.808594 148.914062 140.972656 149.710938 144.179688 150.0625 C 147.382812 150.410156 150.625 150.324219 153.753906 149.898438 C 157.128906 149.445312 160.394531 148.589844 163.53125 147.5 C 166.675781 146.410156 169.691406 145.082031 172.570312 143.652344 C 175.78125 142.058594 178.832031 140.3125 181.773438 138.5625 C 184.710938 136.8125 187.542969 135.050781 190.292969 133.375 C 193.558594 131.375 196.722656 129.492188 199.792969 127.832031 C 202.867188 126.171875 205.847656 124.726562 208.71875 123.539062 C 210.296875 122.878906 211.867188 122.296875 213.40625 121.84375 C 214.953125 121.382812 216.46875 121.050781 217.945312 120.851562 C 219.804688 120.601562 221.597656 120.605469 223.230469 120.820312 C 224.863281 121.03125 226.339844 121.449219 227.625 122.011719 C 229.160156 122.691406 230.382812 123.550781 231.332031 124.398438 C 232.273438 125.25 232.949219 126.085938 233.425781 126.800781 C 233.902344 127.511719 234.191406 128.101562 234.34375 128.511719 C 234.5 128.917969 234.527344 129.152344 234.453125 129.191406 C 234.378906 129.234375 234.207031 129.078125 233.921875 128.765625 C 233.636719 128.453125 233.238281 127.980469 232.675781 127.410156 C 232.109375 126.84375 231.382812 126.179688 230.4375 125.523438 C 229.492188 124.871094 228.328125 124.222656 226.941406 123.757812 C 225.785156 123.371094 224.472656 123.113281 223.023438 123.042969 C 221.578125 122.96875 219.996094 123.082031 218.347656 123.394531 C 217.039062 123.644531 215.6875 124.027344 214.289062 124.53125 C 212.890625 125.035156 211.449219 125.65625 209.957031 126.351562 C 207.257812 127.621094 204.445312 129.136719 201.515625 130.875 C 198.585938 132.605469 195.546875 134.5625 192.355469 136.640625 C 189.675781 138.394531 186.882812 140.246094 183.9375 142.097656 C 180.988281 143.953125 177.886719 145.816406 174.566406 147.558594 C 171.589844 149.125 168.421875 150.585938 165.066406 151.808594 C 161.707031 153.027344 158.160156 154.003906 154.425781 154.574219 C 150.953125 155.109375 147.316406 155.246094 143.664062 154.867188 C 140.011719 154.488281 136.34375 153.585938 132.835938 152.027344 C 129.453125 150.503906 126.320312 148.367188 123.613281 145.734375 C 120.90625 143.097656 118.621094 139.972656 116.9375 136.496094 C 116.054688 134.675781 115.347656 132.773438 114.835938 130.832031 C 113.757812 126.664062 113.539062 122.421875 113.96875 118.3125 C 114.398438 114.203125 115.476562 110.230469 117.015625 106.574219 C 119.503906 100.644531 123.128906 95.457031 127.371094 91.183594 C 131.613281 86.90625 136.464844 83.550781 141.492188 81.144531 C 147.585938 78.238281 153.859375 76.710938 159.796875 76.164062 C 165.726562 75.621094 171.324219 76.054688 176.292969 77.074219 C 181.679688 78.179688 186.339844 79.941406 190.207031 81.863281 C 194.078125 83.785156 197.167969 85.859375 199.539062 87.710938 C 201.914062 89.566406 203.582031 91.195312 204.644531 92.359375 C 205.703125 93.523438 206.164062 94.21875 206.050781 94.335938"/></g></g></g><g clip-path="url(#e)"><g clip-path="url(#f)"><g clip-path="url(#g)"><path fill="#3D3D3D" d="M 188.488281 78.351562 C 188.40625 78.207031 188.691406 77.859375 189.316406 77.34375 C 189.941406 76.832031 190.910156 76.148438 192.203125 75.34375 C 194.796875 73.734375 198.699219 71.636719 203.78125 69.574219 C 206.601562 68.433594 209.824219 67.277344 213.488281 66.480469 C 216.992188 65.71875 220.863281 65.347656 224.929688 65.582031 C 228.996094 65.816406 233.257812 66.65625 237.429688 68.300781 C 241.273438 69.816406 244.996094 72.035156 248.292969 74.910156 C 251.347656 77.578125 253.894531 80.695312 255.816406 84.074219 C 258.042969 88.007812 259.359375 92.253906 259.855469 96.367188 C 260.347656 100.484375 260.019531 104.464844 259.070312 108.03125 C 258.367188 110.660156 257.320312 113.039062 256.105469 115.113281 C 254.878906 117.1875 253.492188 118.964844 252.054688 120.441406 C 250.625 121.921875 249.15625 123.105469 247.757812 124.035156 C 246.359375 124.964844 245.035156 125.640625 243.859375 126.128906 C 242.265625 126.785156 240.96875 127.101562 240.070312 127.234375 C 239.179688 127.367188 238.6875 127.316406 238.640625 127.148438 C 238.589844 126.980469 238.988281 126.699219 239.742188 126.265625 C 240.496094 125.832031 241.609375 125.238281 242.949219 124.371094 C 243.933594 123.734375 245.03125 122.945312 246.179688 121.949219 C 247.324219 120.953125 248.511719 119.75 249.65625 118.320312 C 250.796875 116.886719 251.894531 115.222656 252.828125 113.332031 C 253.761719 111.441406 254.542969 109.328125 255.027344 107.050781 C 255.695312 103.949219 255.824219 100.515625 255.277344 96.988281 C 254.730469 93.460938 253.511719 89.84375 251.570312 86.511719 C 249.898438 83.640625 247.679688 80.972656 245.023438 78.660156 C 242.15625 76.167969 238.925781 74.207031 235.601562 72.828125 C 231.976562 71.320312 228.226562 70.484375 224.597656 70.160156 C 220.972656 69.832031 217.46875 70.011719 214.253906 70.523438 C 210.878906 71.058594 207.765625 71.949219 204.949219 72.824219 C 199.871094 74.40625 195.847656 75.976562 193.042969 77.039062 C 191.644531 77.570312 190.542969 77.976562 189.777344 78.207031 C 189.003906 78.441406 188.566406 78.5 188.488281 78.351562"/></g></g></g><g clip-path="url(#h)"><g clip-path="url(#i)"><g clip-path="url(#j)"><path fill="#3D3D3D" d="M 145.292969 151.4375 C 145.390625 151.316406 145.820312 151.484375 146.550781 151.929688 C 147.28125 152.378906 148.304688 153.113281 149.546875 154.164062 C 150.785156 155.222656 152.242188 156.597656 153.804688 158.34375 C 155.367188 160.085938 157.03125 162.199219 158.648438 164.707031 C 160.097656 167.085938 161.457031 169.820312 162.566406 172.902344 C 163.679688 175.984375 164.539062 179.410156 164.988281 183.125 C 174.539062 179.949219 185.484375 176.753906 197.316406 174.164062 C 199.378906 173.875 201.464844 173.605469 203.574219 173.355469 C 215.855469 171.90625 227.605469 171.335938 238.132812 171.234375 C 236.078125 167.5625 234.6875 163.832031 233.832031 160.246094 C 232.976562 156.664062 232.652344 153.226562 232.695312 150.078125 C 232.851562 146.570312 233.378906 143.441406 234.054688 140.761719 C 234.726562 138.085938 235.542969 135.855469 236.316406 134.089844 C 237.09375 132.324219 237.824219 131.023438 238.382812 130.175781 C 238.941406 129.328125 239.324219 128.9375 239.472656 129.011719 C 239.621094 129.085938 239.527344 129.621094 239.261719 130.578125 C 239 131.535156 238.5625 132.917969 238.085938 134.714844 C 237.609375 136.507812 237.085938 138.710938 236.695312 141.296875 C 236.304688 143.882812 236.046875 146.855469 236.117188 150.121094 C 236.078125 153.398438 236.3125 156.992188 236.960938 160.78125 C 237.609375 164.570312 238.667969 168.546875 240.257812 172.5 C 229.546875 173.503906 217.414062 175.21875 204.675781 177.714844 C 202.488281 178.148438 200.324219 178.59375 198.183594 179.046875 C 185.382812 180.828125 173.554688 183.125 163.46875 185.542969 C 162.613281 181.722656 161.453125 178.167969 160.140625 174.953125 C 158.828125 171.738281 157.371094 168.863281 155.90625 166.339844 C 154.558594 163.867188 153.164062 161.730469 151.855469 159.910156 C 150.550781 158.09375 149.335938 156.59375 148.320312 155.382812 C 147.304688 154.179688 146.492188 153.253906 145.960938 152.601562 C 145.4375 151.941406 145.195312 151.554688 145.292969 151.4375"/></g></g></g><g clip-path="url(#k)"><g clip-path="url(#l)"><g clip-path="url(#m)"><path fill="#3D3D3D" d="M 161.375 177.023438 C 161.257812 176.699219 162.019531 176.082031 163.5 175.269531 C 164.980469 174.457031 167.191406 173.445312 169.988281 172.371094 C 172.78125 171.292969 176.160156 170.144531 179.96875 169.058594 C 183.773438 167.976562 188.007812 166.953125 192.496094 166.097656 C 192.777344 166.042969 193.054688 165.996094 193.335938 165.9375 C 197.730469 165.132812 201.949219 164.5625 205.789062 164.199219 C 209.632812 163.835938 213.105469 163.675781 216.019531 163.664062 C 218.929688 163.648438 221.285156 163.78125 222.914062 163.992188 C 224.546875 164.203125 225.445312 164.496094 225.460938 164.828125 C 225.472656 165.167969 224.597656 165.523438 223.011719 165.898438 C 221.425781 166.273438 219.132812 166.667969 216.300781 167.125 C 213.46875 167.582031 210.105469 168.097656 206.371094 168.707031 C 202.636719 169.316406 198.539062 170.023438 194.246094 170.828125 C 193.972656 170.882812 193.703125 170.933594 193.425781 170.984375 C 189.039062 171.820312 184.871094 172.6875 181.082031 173.507812 C 177.292969 174.328125 173.878906 175.105469 171.003906 175.734375 C 168.121094 176.371094 165.777344 176.859375 164.121094 177.105469 C 162.457031 177.347656 161.488281 177.347656 161.375 177.023438"/></g></g></g><g fill="#718355"><g><g><path d="M 23.042969 -33.214844 C 23.191406 -32.617188 23.042969 -32.167969 22.292969 -31.570312 C 21.996094 -31.421875 21.695312 -31.273438 21.394531 -31.570312 C 21.246094 -31.71875 21.097656 -31.871094 21.097656 -32.167969 C 20.949219 -32.769531 19.601562 -38.601562 19.453125 -38.601562 C 19.152344 -39.050781 18.554688 -39.949219 18.105469 -40.847656 L 16.160156 -41.746094 C 13.765625 -41.296875 12.121094 -41.148438 11.222656 -38.453125 C 10.175781 -34.5625 10.324219 -30.222656 10.472656 -26.035156 C 10.773438 -21.84375 10.921875 -17.507812 11.671875 -13.464844 C 11.96875 -11.371094 12.417969 -9.277344 13.167969 -7.183594 C 13.765625 -5.386719 14.066406 -3.589844 16.160156 -2.992188 C 17.953125 -3.589844 18.554688 -5.386719 19.601562 -6.882812 C 20.347656 -9.128906 21.546875 -11.519531 21.246094 -14.214844 C 22.144531 -14.511719 22.742188 -14.363281 23.191406 -13.617188 C 24.539062 -9.726562 22.144531 -5.984375 20.199219 -2.84375 C 19.300781 -1.347656 18.402344 -0.300781 16.609375 0.148438 C 14.960938 0.597656 13.167969 0.449219 11.671875 -0.148438 C 10.023438 -0.597656 8.078125 -1.496094 7.183594 -2.84375 C 6.132812 -4.191406 5.386719 -6.132812 4.9375 -7.78125 C 3.589844 -11.371094 3.140625 -15.261719 2.992188 -19.003906 C 2.84375 -25.136719 4.039062 -31.273438 6.582031 -36.808594 C 7.632812 -38.902344 8.828125 -40.996094 10.472656 -42.492188 C 12.71875 -44.289062 15.710938 -44.289062 18.105469 -42.792969 C 19.75 -41.746094 20.648438 -39.949219 21.394531 -38.15625 L 22.292969 -35.3125 C 22.59375 -34.5625 23.042969 -33.964844 23.042969 -33.214844 Z M 23.042969 -33.214844" transform="translate(104.949 258.094)"/></g></g></g><g fill="#718355"><g><g><path d="M 11.96875 -42.941406 C 12.417969 -43.09375 13.015625 -43.242188 13.464844 -43.242188 C 19.453125 -44.289062 22.292969 -39.050781 23.042969 -33.816406 C 24.238281 -26.035156 24.6875 -17.207031 21.84375 -9.128906 C 20.949219 -6.285156 20.199219 -4.339844 17.953125 -2.246094 C 11.371094 3.742188 6.882812 -4.488281 4.789062 -10.324219 C 2.691406 -16.308594 2.394531 -23.042969 4.039062 -29.328125 C 5.238281 -34.113281 7.03125 -40.847656 11.96875 -42.941406 Z M 19.453125 -38.601562 C 18.703125 -40.25 17.507812 -41.296875 15.859375 -41.296875 C 13.765625 -41.296875 12.71875 -39.652344 11.96875 -37.707031 C 10.175781 -32.46875 10.324219 -24.539062 10.773438 -18.402344 C 10.921875 -15.5625 10.921875 -9.875 11.820312 -7.03125 C 12.417969 -4.9375 13.316406 -0.300781 16.308594 -3.589844 C 22.144531 -9.875 22.59375 -19.898438 21.695312 -27.832031 C 21.394531 -30.222656 21.097656 -35.460938 19.453125 -38.601562 Z M 19.453125 -38.601562" transform="translate(130.086 258.094)"/></g></g></g><g fill="#718355"><g><g><path d="M 11.96875 -42.941406 C 12.417969 -43.09375 13.015625 -43.242188 13.464844 -43.242188 C 19.453125 -44.289062 22.292969 -39.050781 23.042969 -33.816406 C 24.238281 -26.035156 24.6875 -17.207031 21.84375 -9.128906 C 20.949219 -6.285156 20.199219 -4.339844 17.953125 -2.246094 C 11.371094 3.742188 6.882812 -4.488281 4.789062 -10.324219 C 2.691406 -16.308594 2.394531 -23.042969 4.039062 -29.328125 C 5.238281 -34.113281 7.03125 -40.847656 11.96875 -42.941406 Z M 19.453125 -38.601562 C 18.703125 -40.25 17.507812 -41.296875 15.859375 -41.296875 C 13.765625 -41.296875 12.71875 -39.652344 11.96875 -37.707031 C 10.175781 -32.46875 10.324219 -24.539062 10.773438 -18.402344 C 10.921875 -15.5625 10.921875 -9.875 11.820312 -7.03125 C 12.417969 -4.9375 13.316406 -0.300781 16.308594 -3.589844 C 22.144531 -9.875 22.59375 -19.898438 21.695312 -27.832031 C 21.394531 -30.222656 21.097656 -35.460938 19.453125 -38.601562 Z M 19.453125 -38.601562" transform="translate(155.522 258.094)"/></g></g></g><g fill="#718355"><g><g><path d="M 5.085938 -73.617188 C 5.535156 -74.664062 6.285156 -75.5625 7.332031 -76.007812 C 11.671875 -77.65625 10.773438 -70.175781 10.921875 -68.078125 C 11.070312 -64.1875 11.070312 -60.300781 11.222656 -56.410156 C 11.222656 -52.519531 11.222656 -48.476562 11.371094 -44.4375 C 11.371094 -41.597656 10.625 -34.5625 12.867188 -32.320312 C 14.8125 -35.160156 15.5625 -39.949219 16.308594 -43.390625 C 17.058594 -47.132812 17.804688 -51.023438 18.402344 -54.914062 C 18.851562 -57.007812 18.703125 -61.496094 20.5 -62.992188 C 22.59375 -64.636719 24.390625 -63.292969 24.539062 -61.046875 C 24.835938 -57.753906 23.941406 -53.863281 23.339844 -50.574219 C 22.445312 -46.382812 21.394531 -42.34375 20.050781 -38.304688 C 19.003906 -35.3125 15.113281 -30.375 18.253906 -27.832031 C 20.050781 -26.335938 21.546875 -24.6875 23.042969 -23.042969 C 23.492188 -22.59375 23.789062 -21.996094 24.089844 -21.394531 C 25.285156 -18.703125 26.484375 -16.160156 27.230469 -13.464844 C 27.832031 -11.371094 29.328125 -5.238281 29.625 -2.84375 C 29.925781 1.195312 22.59375 0.148438 22.144531 -4.636719 C 21.84375 -7.78125 20.648438 -11.222656 19.75 -14.214844 C 18.851562 -17.058594 16.609375 -24.238281 13.015625 -24.6875 C 11.070312 -24.988281 12.570312 -12.417969 12.71875 -11.371094 C 12.867188 -8.976562 13.464844 -4.9375 11.96875 -2.84375 C 10.773438 -1.046875 7.480469 -0.75 5.984375 -2.394531 C 5.085938 -3.441406 5.238281 -5.6875 5.085938 -7.03125 C 4.9375 -10.625 5.386719 -14.363281 5.238281 -17.953125 C 5.238281 -24.089844 5.085938 -30.074219 4.9375 -36.210938 C 4.9375 -43.539062 4.789062 -51.023438 4.636719 -58.355469 C 4.636719 -62.09375 4.488281 -65.835938 4.488281 -69.574219 C 4.488281 -70.773438 4.488281 -72.269531 5.085938 -73.617188 Z M 5.085938 -73.617188" transform="translate(180.958 258.094)"/></g></g></g><g fill="#3D3D3D"><g><g><path d="M 4.828125 -48.039062 C 3.769531 -48.273438 3.769531 -47.332031 3.53125 -45.449219 C 3.179688 -41.328125 2.707031 -36.382812 2.355469 -32.144531 C 1.882812 -26.492188 1.882812 -8.125 3.179688 -4.238281 C 4.238281 -1.058594 7.183594 1.175781 10.007812 0.234375 C 12.480469 -0.589844 11.304688 -1.414062 10.597656 -2.824219 C 8.714844 -6.59375 10.242188 -34.734375 10.597656 -39.5625 C 10.949219 -42.859375 11.773438 -46.507812 4.828125 -48.039062 Z M 9.773438 -54.160156 C 13.421875 -52.867188 13.894531 -56.515625 13.539062 -57.8125 C 13.304688 -58.753906 12.832031 -59.34375 11.890625 -60.046875 C 8.59375 -63.109375 3.886719 -62.757812 6.359375 -57.8125 C 7.300781 -55.808594 9.183594 -54.398438 9.773438 -54.160156 Z M 9.773438 -54.160156" transform="translate(222.892 251.636)"/></g></g></g><g fill="#3D3D3D"><g><g><path d="M 20.015625 5.296875 C 20.132812 4.945312 20.015625 2.945312 19.78125 0.589844 C 18.601562 -11.890625 19.074219 -37.089844 20.605469 -48.863281 C 23.667969 -49.804688 28.140625 -50.511719 31.085938 -52.160156 C 34.027344 -53.691406 31.320312 -55.574219 30.496094 -55.457031 C 28.257812 -54.984375 23.667969 -53.21875 20.957031 -53.101562 C 20.605469 -56.164062 22.253906 -59.695312 20.839844 -62.640625 C 19.898438 -64.40625 18.015625 -65.347656 15.894531 -65.464844 C 12.007812 -65.582031 13.539062 -64.523438 13.304688 -61.695312 L 12.480469 -50.863281 C 10.597656 -50.394531 8.832031 -49.921875 7.066406 -49.453125 C 5.417969 -49.097656 4.355469 -48.863281 3.53125 -48.746094 C 0.707031 -48.15625 2.945312 -45.683594 4.710938 -45.683594 C 7.300781 -45.800781 9.417969 -46.863281 12.007812 -47.332031 C 10.597656 -30.261719 9.417969 -0.941406 12.128906 2.707031 C 14.011719 5.296875 19.308594 6.828125 20.015625 5.296875 Z M 20.015625 5.296875" transform="translate(238.787 251.636)"/></g></g></g></svg>